# xmcd CD database file
#
# Track frame offsets:
#	150
#	16629
#	34209
#	46913
#	61685
#	73483
#	95227
#	111039
#	125905
#	139007
#	153240
#
# Disc length: 2686 seconds
#
# Revision: 0
# Processed by: cddbd v1.5.2PL0 Copyright (c) Steve Scherf et al.
# Submitted via: CDex 1.51
#
DISCID=970a7c0b
DTITLE=Al Lukas - In My Soul
DYEAR=2011
DGENRE=Blues
TTITLE0=Al Lukas - The Answer
TTITLE1=Al Lukas - Wild Child
TTITLE2=Al Lukas - Didn't Get Lost In Losing You
TTITLE3=Al Lukas - It's Not Hard
TTITLE4=Al Lukas - Wolf Like Me
TTITLE5=Al Lukas - In My Soul
TTITLE6=Al Lukas - Sara Jane
TTITLE7=Al Lukas - Tell My Mind
TTITLE8=Al Lukas - Find Me
TTITLE9=Al Lukas - One True Friend
TTITLE10=Al Lukas - Restless Flames
EXTD=YEAR: 2011
EXTT0=
EXTT1=
EXTT2=
EXTT3=
EXTT4=
EXTT5=
EXTT6=
EXTT7=
EXTT8=
EXTT9=
EXTT10=
PLAYORDER=
